<svg width="298" height="106" viewBox="0 0 298 106" fill="none" xmlns="http://www.w3.org/2000/svg">
<g clip-path="url(#clip0_57_1614)">
<path d="M177.65 49.08C177.65 49.08 176.75 49.84 175.73 50.74C173.19 52.95 169.3 55.81 166.76 57.34C164.78 58.53 164.05 58.83 164.05 58.44C164.05 58.16 166.16 55.46 167.89 53.53C170.67 50.43 174.53 47.12 176.6 46.06L177.41 45.65L177.55 47.35C177.63 48.29 177.67 49.07 177.64 49.09M193.59 38.91C193.59 38.16 192.13 36.36 191.36 36.16C190.7 35.99 189.78 36.79 185.98 40.87C184.06 42.93 182.34 44.64 182.16 44.68C181.96 44.72 181.67 44.43 181.46 43.98C180.93 42.87 179.8 41.66 178.67 41C176.54 39.75 173.41 40.75 168.86 44.11C164.49 47.35 161.56 50.53 159.36 54.42C158.23 56.42 158.11 56.55 155.84 58.14C153.65 59.67 151.19 61.04 150.01 61.39C149.62 61.51 149.51 61.45 149.51 61.12C149.51 60.4 151.32 57.09 154.25 52.43C158.91 45.01 159.17 44.26 157.6 42.68C156.65 41.73 156.13 41.62 155.04 42.18C153.99 42.72 151.08 44.77 148.29 46.95C144.81 49.66 144.59 49.74 145.9 47.79C147.2 45.87 147.94 44.44 147.94 43.9C147.94 42.9 146.41 41.37 145.41 41.37C145.24 41.37 144.19 42.2 143.09 43.22C139.77 46.28 130.57 53 124.78 56.59C122.01 58.31 118.93 59.88 118.73 59.68C118.55 59.5 119.74 57.67 123.22 52.78C126.57 48.09 127.57 46.51 127.57 45.99C127.57 45.41 126.73 44.73 126.02 44.73C124.46 44.73 118.27 49.82 115.71 53.2C115.09 54.02 114.16 55.52 113.65 56.54C112.03 59.78 112.26 61.67 114.57 63.83C116.4 65.54 117.78 65.62 120.41 64.14C122.13 63.17 125.9 60.65 128.76 58.54C130.09 57.56 131.22 56.81 131.28 56.87C131.34 56.93 130.84 57.89 130.18 59.02C128.6 61.7 128.39 62.24 128.56 63.19C128.78 64.34 130.58 66.2 131.63 66.37C132.33 66.48 132.52 66.41 132.97 65.87C135.96 62.3 140.89 57.4 145.83 53.08C150.25 49.21 150.9 48.89 149.15 51.42C146.08 55.89 144.79 59.99 145.82 62.04C146.28 62.94 147.62 64.37 148.41 64.79C150.02 65.64 152.56 64.75 156.05 62.12C157.14 61.3 158.11 60.63 158.22 60.63C158.33 60.63 158.47 60.83 158.55 61.07C158.79 61.81 160.71 63.53 161.62 63.8C162.27 63.99 162.69 63.99 163.34 63.8C165.01 63.3 170.44 59.41 176.29 54.52C177.92 53.16 179.4 52.02 179.57 52C180.1 51.92 165.89 71.17 159.83 78.74C151.32 89.37 143.76 96.45 139.02 98.25C137.2 98.94 135.41 99.06 134.17 98.59C133.31 98.26 133.08 98.03 132.55 96.94C132.01 95.84 131.93 95.41 131.94 93.65C131.94 92.19 132.09 91.17 132.46 89.96C133.29 87.27 135.31 83.54 136.82 81.92C137.75 80.92 139.39 79.88 139.78 80.03C140.27 80.22 140.16 79.48 139.66 79.22C138.97 78.85 138.47 78.94 136.96 79.69C134.01 81.17 131.61 84.34 130.24 88.57C128.61 93.6 129.39 97.24 132.78 100.39C134.21 101.72 135.66 102.54 137.46 103.05C139.78 103.7 143.15 103.19 146.15 101.72C153.78 97.98 163.06 87.41 177.01 66.56C186.99 51.65 193.58 40.65 193.58 38.92" fill="white"/>
<path d="M96.52 55.03C97.1 54.36 97.62 53.86 97.69 53.93C97.76 54 97.57 54.64 97.29 55.37C97 56.1 96.29 58.29 95.7 60.25C94.71 63.53 94.65 63.87 94.89 64.7C95.2 65.73 96.81 67.56 97.87 68.08C99.15 68.71 99.1 68.75 101.27 65.54C104.56 60.66 107.92 56.54 113.43 50.62C116.94 46.85 120.3 43.76 126.46 38.63C135.2 31.35 139.21 28.27 142.16 26.59C143.64 25.75 143.79 25.54 143.21 25.17C141.98 24.4 131.86 31.2 119.02 41.42C113.19 46.06 111.23 47.72 107.27 51.4C105.88 52.68 104.69 53.68 104.62 53.61C104.55 53.54 105.35 51.03 106.4 48.04C108.59 41.78 109.05 40.14 109.1 38.52C109.13 37.45 109.06 37.28 108.25 36.45C106.72 34.89 106.49 35.02 104.14 38.73C101.51 42.89 99.09 46.34 96.97 48.96C94.8 51.64 89.7 56.91 88.35 57.88C87.43 58.54 87.31 58.57 87.31 58.18C87.31 57.94 88.47 55.44 89.88 52.63C91.57 49.28 92.45 47.28 92.45 46.8C92.45 46.05 91.66 44.89 90.84 44.46C90.23 44.13 89.83 44.43 86.23 47.92C81.15 52.84 73.8 58.96 73.2 58.77C72.82 58.64 77.68 51.63 80.46 48.29C80.92 47.74 82.04 46.5 82.95 45.54C83.86 44.58 84.6 43.7 84.6 43.58C84.6 42.54 82.73 40.39 81.57 40.1C80.76 39.9 80.18 40.22 78.47 41.81C74.37 45.64 69.54 51.8 67.56 55.73C65.14 60.53 65.23 62.81 67.94 65.04C69.16 66.05 70.03 66.16 71.22 65.46C72.32 64.82 76.6 61.19 80.29 57.78C82.71 55.54 83.46 55.03 83.16 55.82C83.08 56.03 82.9 56.87 82.76 57.7C82.41 59.74 82.73 60.76 84.14 62.17C85.54 63.57 86.5 63.79 87.9 63.04C89.62 62.13 93.46 58.55 96.51 55" fill="white"/>
<path d="M131.99 42.98C134.2 41.83 135.63 40.61 135.63 39.88C135.63 39.05 134.3 37.79 133.43 37.79C132.56 37.79 131.03 38.95 130.08 40.36C129.48 41.25 129.36 41.63 129.42 42.37C129.46 42.87 129.57 43.41 129.67 43.56C129.93 43.98 130.24 43.91 131.99 42.99" fill="white"/>
<path d="M200.76 48.7C203 46.52 205.24 44.84 205.7 44.99C206.18 45.15 203.25 48.03 201.34 49.29C198.57 51.11 198.43 50.97 200.76 48.7ZM278.63 74.69C285.91 71.26 293.9 65.93 296.5 62.78C297.7 61.33 297.98 60.47 297.84 58.71C297.58 55.48 294.75 52.71 292.08 53.07C290.97 53.22 288.5 54.34 288.5 54.69C288.5 55.35 289.13 55.54 290.44 55.28C291.99 54.97 293.21 54.96 293.97 55.24C294.46 55.43 294.54 55.6 294.54 56.38C294.54 57.7 293.97 58.75 292.42 60.28C289.49 63.18 283.71 66.37 275.66 69.54C257.72 76.6 242.04 79.09 231.16 76.63C226.89 75.66 225.02 74.55 224.26 72.54C223.84 71.42 223.79 70.92 223.87 68.79C224.01 65.44 224.9 62.84 228.32 55.89C230.19 52.09 230.98 50.24 230.98 49.69C230.98 48.58 230.28 47.26 228.83 45.66C227.71 44.42 227.59 44.2 227.71 43.55C227.9 42.54 229.28 40.27 230.84 38.41C232.48 36.46 232.51 36.04 231.13 34.74C230.57 34.21 230.01 33.77 229.9 33.77C229.53 33.77 227.53 35.48 226.58 36.6C225.43 37.97 224.39 39.66 224.04 40.76C223.55 42.28 217.74 47.3 212.03 51.12C205.57 55.45 198.3 58.61 194.81 58.61C194.28 58.61 194.23 58.55 194.36 57.99C194.44 57.65 194.9 56.56 195.38 55.57L196.26 53.77L197.67 53.86C198.99 53.94 199.22 53.88 201 52.97C203.83 51.51 207.61 48.46 209.08 46.43C210.82 44.03 208.74 40.7 205.49 40.7C200.89 40.7 192.94 46.61 190.28 52C188.79 55.02 188.84 57.18 190.44 59.67C191.94 61.98 194.28 63.51 196.62 63.7C198.34 63.84 201.05 63.18 203.37 62.06C207.71 59.97 215.01 54.18 221.62 47.56L224.62 44.56L225.66 45.75C226.24 46.4 226.71 47.08 226.71 47.26C226.71 47.44 225.93 48.68 224.98 50.02C218.07 59.77 216.56 65.81 219.5 71.9C222.39 77.9 228.37 81.85 236.44 83.1C238.9 83.48 246.05 83.54 249.04 83.21C258.23 82.2 269.74 78.88 278.61 74.7" fill="white"/>
<path d="M88.28 22.12C91.9 18.04 101.31 8.55 101.31 8.98C101.31 9.86 93.89 18.19 87.75 24.2C85.43 26.46 83.38 28.32 83.18 28.32C82.81 28.32 83.17 27.89 88.28 22.13M1.45 105.12C1.89 105.51 2.45 105.82 2.69 105.82C2.93 105.82 4.76 104.9 6.77 103.77C11.34 101.2 18.43 97.65 23.39 95.46C27.38 93.7 35.82 90.27 36.76 90.04C37.14 89.94 37.56 90.07 38.16 90.48C39.7 91.53 40.53 91.15 42.2 88.62C42.74 87.81 42.9 87.73 47.39 86.29C65.92 80.36 84.01 76.97 97.17 76.96H101.13L101.11 77.66C101.1 78.19 101.27 78.53 101.8 79C102.41 79.55 102.69 79.63 103.86 79.63C105.21 79.63 106.71 79.18 107.03 78.67C107.87 77.34 105.93 74.28 103.08 72.42C100.75 70.91 99.18 70.56 94.9 70.59C83.42 70.67 65.99 74.1 49.07 79.59C47.19 80.2 45.66 80.6 45.66 80.49C45.66 79.46 61.89 55.43 69.7 44.91C72.85 40.66 73 40.52 77.45 37.33C92.06 26.85 106.45 12.45 109.36 5.37C110.24 3.24 110.02 2.29 108.32 0.750003C107.52 0.0300033 107.27 -0.0799967 106.63 0.0200033C105.32 0.230003 100.32 3.74 94.9 8.23C86.55 15.15 75.91 25.67 68.18 34.65C59.71 44.48 46.54 62.43 41.58 70.9C39.09 75.15 36.13 81.46 35.71 83.39C35.52 84.26 35.71 84.16 30.07 86.31C23.47 88.84 18.15 91.17 12.2 94.16C3.51 98.53 0 100.91 0 102.45C0 103.37 0.48 104.25 1.45 105.1" fill="white"/>
<path d="M200.76 75.17C205.37 75.57 209.89 76.58 211.2 77.51C211.63 77.81 211.66 77.94 211.45 78.62C210.99 80.13 212.24 81.08 214 80.55C215.64 80.06 215.7 78.64 214.21 76.33C212.3 73.38 208.77 71.49 203.01 70.34C200.48 69.84 191.27 69.65 186.36 70.01C178.82 70.56 173.51 71.4 158.02 74.49C146.31 76.83 132.91 79.78 122.44 82.33C118.32 83.33 112.73 84.59 110.02 85.14C103.26 86.49 100.24 87.15 96.7 88.05C95.04 88.47 93.58 88.82 93.46 88.82C93.34 88.82 93.63 88.42 94.11 87.94C94.96 87.07 95.06 86.49 94.4 86.23C94.24 86.17 92.8 86.58 91.21 87.14C86.94 88.65 85.58 89.55 85.86 90.67C86.04 91.38 87.44 93.04 88.07 93.29C88.84 93.6 89.55 93.53 91.67 92.93C94.6 92.11 112.81 87.56 116.26 86.8C117.88 86.44 121.57 85.7 124.46 85.14C127.35 84.59 133.65 83.38 138.45 82.45C159.49 78.39 165.71 77.38 177.62 76.06C188.07 74.9 194.87 74.64 200.78 75.15" fill="white"/>
</g>
<defs>
<clipPath id="clip0_57_1614">
<rect width="297.87" height="105.82" fill="white"/>
</clipPath>
</defs>
</svg>
