<svg xmlns="http://www.w3.org/2000/svg" width="59.173" height="45.252" viewBox="0 0 59.173 45.252">
  <path id="Path_41" data-name="Path 41" d="M1567.38,19.357a5.143,5.143,0,0,0-5.135-5.135h-48.153a5.144,5.144,0,0,0-5.135,5.135V53.589a5.143,5.143,0,0,0,5.135,5.135h48.153a5.143,5.143,0,0,0,5.135-5.135Zm-55,.692,16.486,16.345L1512.38,52.88Zm25.9,20.855-23.46-23.259h46.718Zm-6.98-2.1,5.78,5.731a1.711,1.711,0,0,0,2.415-.005l5.636-5.636L1561.536,55.3H1514.8Zm16.252-2.331,16.407-16.407V52.88Z" transform="translate(-1508.582 -13.847)" fill="#09244f" stroke="#09244f" stroke-width="0.75"/>
</svg>
