<svg xmlns="http://www.w3.org/2000/svg" width="47.882" height="48" viewBox="0 0 47.882 48">
  <g id="Group_68" data-name="Group 68" transform="translate(-1610.751 -3342)">
    <path id="Path_39" data-name="Path 39" d="M1105.806,48l3.441-12.84a23.761,23.761,0,1,1,9.464,9.382Zm13.547-8.269.812.485a19.292,19.292,0,1,0-6.6-6.54l.5.819-1.921,7.169Z" transform="translate(504.945 3342)" fill="#09244f"/>
    <path id="Path_40" data-name="Path 40" d="M1208.45,97.549c-.976-.584-2.245-1.235-3.4-.765-.882.361-1.445,1.741-2.016,2.446a.845.845,0,0,1-1.094.237,15.38,15.38,0,0,1-7.674-6.574.942.942,0,0,1,.119-1.285,5.19,5.19,0,0,0,1.394-2.263,4.95,4.95,0,0,0-.623-2.679c-.463-1-.98-2.417-1.978-2.981a2.711,2.711,0,0,0-2.943.438,5.975,5.975,0,0,0-2.071,4.733,6.728,6.728,0,0,0,.186,1.5,12.445,12.445,0,0,0,1.441,3.321,26.227,26.227,0,0,0,1.5,2.287,23.222,23.222,0,0,0,6.524,6.058,19.742,19.742,0,0,0,4.069,1.935,9.042,9.042,0,0,0,4.736.748,5.734,5.734,0,0,0,4.3-3.195,2.776,2.776,0,0,0,.2-1.63c-.245-1.123-1.765-1.791-2.673-2.334" transform="translate(435.295 3271.456)" fill="#09244f" fill-rule="evenodd"/>
  </g>
</svg>
