<svg xmlns="http://www.w3.org/2000/svg" width="53.822" height="44.3" viewBox="0 0 53.822 44.3">
  <path id="Path_38" data-name="Path 38" d="M739.877,16.509a22.205,22.205,0,0,1-5.443,1.552c.875-.147,2.161-1.732,2.676-2.373a9.968,9.968,0,0,0,1.807-3.294c.047-.094.082-.212-.012-.283a.309.309,0,0,0-.288.024,27.785,27.785,0,0,1-6.454,2.469.431.431,0,0,1-.445-.118,5.272,5.272,0,0,0-.564-.577,11.41,11.41,0,0,0-3.126-1.915,10.879,10.879,0,0,0-4.794-.772,11.465,11.465,0,0,0-4.549,1.285,11.722,11.722,0,0,0-3.669,3,11.267,11.267,0,0,0-2.191,4.389,11.887,11.887,0,0,0-.116,4.634c.035.259.012.294-.223.259C703.621,23.467,696.274,20.3,690.31,13.5c-.259-.295-.4-.295-.611.023-2.61,3.912-1.344,10.2,1.916,13.286.435.412.882.824,1.363,1.2a11.308,11.308,0,0,1-4.279-1.2c-.259-.164-.389-.07-.412.224a6.753,6.753,0,0,0,.07,1.271,11.372,11.372,0,0,0,7.008,9.064,6.609,6.609,0,0,0,1.422.435,12.669,12.669,0,0,1-4.2.13c-.306-.059-.423.094-.306.388,1.846,5.033,5.833,6.531,8.818,7.384.4.07.8.07,1.2.164-.024.036-.048.036-.071.071-.99,1.51-4.423,2.633-6.022,3.192a21.568,21.568,0,0,1-9.146,1.17c-.492-.072-.595-.067-.728,0-.135.083-.017.2.141.328.624.412,1.258.777,1.9,1.129a30.2,30.2,0,0,0,6.114,2.446c10.987,3.034,23.363.8,31.612-7.392,6.479-6.437,8.749-15.313,8.749-24.2,0-.348.411-.54.655-.724a21.378,21.378,0,0,0,4.3-4.474,1.36,1.36,0,0,0,.285-.857v-.047c0-.142,0-.1-.222,0" transform="translate(-686.276 -11.199)" fill="#09244f"/>
</svg>
