<svg xmlns="http://www.w3.org/2000/svg" width="105.803" height="102.887"><g id="Group_49" data-name="Group 49" transform="translate(3.924 3.924)"><g id="Group_57" data-name="Group 57" transform="translate(-3.924 -3.924)" fill="#fff"><path id="Path_16" data-name="Path 16" d="M144.24 196.67h5.805a8.718 8.718 0 008.708-8.708v-5.127a8.687 8.687 0 002.9-6.483v-.635a14.561 14.561 0 013.979-10.132 26.148 26.148 0 10-36.781.2 14.087 14.087 0 013.777 9.943v.624a8.687 8.687 0 002.9 6.483v5.127a8.718 8.718 0 008.708 8.708m8.708-8.708a2.906 2.906 0 01-2.9 2.9h-5.804a2.906 2.906 0 01-2.9-2.9v-2.9h11.61zm-20.03-26.322a20.462 20.462 0 01-5.445-19.734 19.973 19.973 0 0114.742-14.516 20.336 20.336 0 0119.311 34.093 20.2 20.2 0 00-5.675 14.233v.635a2.906 2.906 0 01-2.9 2.9h-11.61a2.906 2.906 0 01-2.9-2.9v-.624a19.707 19.707 0 00-5.517-14.088" transform="translate(-93.792 -93.782)"/><path id="Path_17" data-name="Path 17" d="M84.458 84.459a2.9 2.9 0 000-4.1l-8.21-8.21a2.9 2.9 0 00-4.1 4.1l8.21 8.21a2.9 2.9 0 004.1 0" transform="translate(-56.879 -55.629)"/><path id="Path_18" data-name="Path 18" d="M0 243.9a2.9 2.9 0 002.9 2.9h11.8a2.9 2.9 0 000-5.805H2.9A2.9 2.9 0 000 243.9" transform="translate(0 -190.552)"/><path id="Path_19" data-name="Path 19" d="M435.706 241H423.9a2.9 2.9 0 000 5.805h11.8a2.9 2.9 0 000-5.805" transform="translate(-332.806 -190.552)"/><path id="Path_20" data-name="Path 20" d="M381.444 76.249a2.9 2.9 0 00-4.1-4.1l-8.21 8.21a2.9 2.9 0 004.1 4.1z" transform="translate(-290.008 -55.629)"/><path id="Path_21" data-name="Path 21" d="M246.805 14.706V2.9a2.9 2.9 0 00-5.805 0v11.8a2.9 2.9 0 005.805 0" transform="translate(-190.552)"/><path id="Path_22" data-name="Path 22" d="M194.852 187.077a10.057 10.057 0 012.289-.272 2.9 2.9 0 000-5.805 15.862 15.862 0 00-3.61.425 14.318 14.318 0 00-10.431 10.251 2.9 2.9 0 105.634 1.4 8.5 8.5 0 016.113-6" transform="translate(-143.79 -142.162)"/></g></g></svg>