<svg xmlns="http://www.w3.org/2000/svg" width="103.103" height="102.887"><g id="Group_53" data-name="Group 53" transform="translate(3 6.052)"><g id="Group_56" data-name="Group 56" fill="#47a2ff"><path id="Path_24" data-name="Path 24" d="M128.283 208.779a17.656 17.656 0 006.166-13.41v-.933a17.691 17.691 0 00-35.381 0v.933a17.656 17.656 0 006.166 13.41 29.847 29.847 0 00-21.064 28.489 2.793 2.793 0 002.793 2.793h59.589a2.793 2.793 0 002.793-2.793 29.847 29.847 0 00-21.063-28.488m-23.629-14.343a12.1 12.1 0 1124.208 0v.933a12.1 12.1 0 11-24.208 0zm-14.736 40.037a24.243 24.243 0 0124.048-21.415h5.586a24.243 24.243 0 0124.049 21.415z" transform="translate(-68.207 -143.226)"/><path id="Path_25" data-name="Path 25" d="M181.476 19.007l-.063 7.041a2.793 2.793 0 003.68 2.674l6.677-2.235 6.677 2.235a2.793 2.793 0 003.68-2.674l-.063-7.041 4.19-5.66a2.794 2.794 0 00-1.406-4.326L198.133 6.9l-4.088-5.733a2.793 2.793 0 00-4.549 0L185.408 6.9l-6.716 2.116a2.794 2.794 0 00-1.406 4.326zm6.5-7.055a2.791 2.791 0 001.435-1.043L191.77 7.6l2.357 3.305a2.794 2.794 0 001.435 1.043l3.872 1.22-2.415 3.263a2.792 2.792 0 00-.548 1.687l.036 4.059-3.849-1.289a2.793 2.793 0 00-1.774 0l-3.849 1.289.036-4.059a2.792 2.792 0 00-.548-1.687l-2.415-3.263z" transform="translate(-143.219 -6.052)"/><path id="Path_26" data-name="Path 26" d="M383.4 55.014a2.793 2.793 0 00-1.817-1.8L374.87 51.1l-4.088-5.733a2.793 2.793 0 00-4.548 0l-4.089 5.733-6.716 2.116a2.793 2.793 0 00-1.406 4.326l4.189 5.66-.063 7.041a2.793 2.793 0 003.68 2.674l6.677-2.235 6.677 2.235a2.793 2.793 0 003.68-2.674L378.8 63.2l4.189-5.66a2.792 2.792 0 00.411-2.525m-9.647 5.613a2.794 2.794 0 00-.548 1.687l.036 4.059-3.85-1.289a2.8 2.8 0 00-1.773 0l-3.849 1.289.036-4.059a2.8 2.8 0 00-.548-1.687l-2.415-3.263 3.872-1.22a2.792 2.792 0 001.435-1.042l2.357-3.305 2.357 3.305a2.794 2.794 0 001.435 1.042l3.872 1.22z" transform="translate(-283.438 -30.811)"/><path id="Path_27" data-name="Path 27" d="M22.6 73.058a2.793 2.793 0 002.793-2.818l-.066-7.04 4.189-5.66a2.793 2.793 0 00-1.406-4.326L21.395 51.1l-4.089-5.733a2.793 2.793 0 00-4.549 0L8.669 51.1l-6.715 2.113a2.793 2.793 0 00-1.406 4.326l4.19 5.66-.063 7.041a2.794 2.794 0 003.68 2.674l6.677-2.235 6.677 2.235a2.793 2.793 0 00.886.144m-2.828-6.685l-3.849-1.289a2.8 2.8 0 00-1.774 0L10.3 66.373l.036-4.06a2.793 2.793 0 00-.548-1.687l-2.419-3.262 3.872-1.22a2.792 2.792 0 001.434-1.044l2.357-3.3 2.357 3.3a2.793 2.793 0 001.435 1.042l3.872 1.22-2.416 3.265a2.793 2.793 0 00-.548 1.687z" transform="translate(-3 -30.811)"/></g></g></svg>