<svg id="Group_59" data-name="Group 59" xmlns="http://www.w3.org/2000/svg" width="88" height="106"><defs><clipPath id="clip-path"><path id="Rectangle_112" data-name="Rectangle 112" fill="#fff" stroke="#fff" stroke-width="1" d="M0 0h88v106H0z"/></clipPath></defs><g id="Group_58" data-name="Group 58" clip-path="url(#clip-path)"><path id="Path_30" data-name="Path 30" d="M86.833 41.295L67.256 26.869a2.061 2.061 0 00-3.283 1.649c-.013 2.6-.024 4.817-.032 6.708-3.821 0-8.648-.242-12.245 1.106v-12.6l6.707-.032a2.072 2.072 0 001.649-3.283L45.627.838a2.061 2.061 0 00-3.318 0L27.883 20.41a2.072 2.072 0 001.657 3.283h6.7V60.4a22.321 22.321 0 00-6.955-1.1h-5.29l-.032-6.707a2.073 2.073 0 00-3.283-1.65L1.103 65.367a2.062 2.062 0 000 3.319L20.674 83.11a2.072 2.072 0 003.283-1.657c0-2.824.005-5.04.012-6.7h5.315a6.963 6.963 0 016.955 6.955v21.742a2.061 2.061 0 002.064 2.061h11.331a2.061 2.061 0 002.061-2.061V57.637a6.963 6.963 0 016.955-6.955h5.316c.006 1.664.01 3.88.012 6.7a2.06 2.06 0 003.283 1.657l19.572-14.427a2.074 2.074 0 000-3.318M47.574 101.39h-7.213V81.709a11.089 11.089 0 00-11.077-11.077H21.92a2.061 2.061 0 00-2.061 2.045 728.097 728.097 0 00-.018 4.7L5.803 67.026 19.86 56.665c.01 1.793.017 3.35.023 4.7a2.06 2.06 0 002.061 2.051h7.34a18.31 18.31 0 0118.29 18.293zm0-32.619a22.573 22.573 0 00-7.213-6.539V21.638a2.061 2.061 0 00-2.058-2.061H33.62L43.967 5.534 54.33 19.6l-4.705.023a2.062 2.062 0 00-2.051 2.061zM68.094 53.3c0-2.066-.01-3.618-.018-4.7a2.06 2.06 0 00-2.061-2.045H58.65a11.029 11.029 0 00-6.955 2.461v-8.3a18.026 18.026 0 016.955-1.378h7.342a2.062 2.062 0 002.06-2.038c.005-1.354.013-2.911.021-4.7l14.063 10.354z" fill="#fff" stroke="#fff" stroke-width="1"/></g></svg>