<svg id="Group_55" data-name="Group 55" xmlns="http://www.w3.org/2000/svg" width="83" height="83"><defs><clipPath id="clip-path"><path id="Rectangle_111" data-name="Rectangle 111" fill="#fff" d="M0 0h83v83H0z"/></clipPath></defs><g id="Group_54" data-name="Group 54" clip-path="url(#clip-path)" fill="#fff"><path id="Path_28" data-name="Path 28" d="M44.1 83h-5.2a7.65 7.65 0 01-7.641-7.641V73.6a33.5 33.5 0 01-5.2-2.16L24.8 72.686a7.641 7.641 0 01-10.807 0L10.313 69a7.641 7.641 0 010-10.807l1.248-1.248a33.47 33.47 0 01-2.16-5.2h-1.76A7.649 7.649 0 010 44.1v-5.2a7.649 7.649 0 017.641-7.64H9.4a33.471 33.471 0 012.16-5.2l-1.246-1.26a7.641 7.641 0 010-10.807L14 10.314a7.638 7.638 0 0110.806 0l1.248 1.248a33.471 33.471 0 015.2-2.16V7.641A7.649 7.649 0 0138.9 0h5.2a7.649 7.649 0 017.64 7.641V9.4a33.47 33.47 0 015.2 2.16l1.26-1.246a7.641 7.641 0 0110.807 0L72.686 14a7.64 7.64 0 010 10.807l-1.248 1.248a33.471 33.471 0 012.16 5.2h1.762A7.649 7.649 0 0183 38.9v5.2a7.649 7.649 0 01-7.641 7.64H73.6a33.47 33.47 0 01-2.16 5.2l1.246 1.26a7.641 7.641 0 010 10.807L69 72.687a7.639 7.639 0 01-10.806 0l-1.248-1.247a33.554 33.554 0 01-5.2 2.16v1.76A7.649 7.649 0 0144.1 83M26.865 66.331a28.684 28.684 0 007.429 3.084 2.433 2.433 0 011.825 2.355v3.59a2.781 2.781 0 002.781 2.777h5.2a2.781 2.781 0 002.778-2.778v-3.59a2.432 2.432 0 011.824-2.355 28.7 28.7 0 007.43-3.084 2.43 2.43 0 012.957.373l2.543 2.543a2.776 2.776 0 003.927 0l3.685-3.685a2.776 2.776 0 000-3.927L66.7 59.093a2.433 2.433 0 01-.374-2.958 28.649 28.649 0 003.084-7.429 2.431 2.431 0 012.354-1.824h3.59a2.781 2.781 0 002.783-2.782v-5.2a2.781 2.781 0 00-2.778-2.777h-3.59a2.432 2.432 0 01-2.354-1.824 28.655 28.655 0 00-3.084-7.43 2.431 2.431 0 01.374-2.957l2.543-2.544a2.777 2.777 0 000-3.927l-3.684-3.684a2.776 2.776 0 00-3.927 0L59.093 16.3a2.431 2.431 0 01-2.957.374 28.675 28.675 0 00-7.43-3.084 2.431 2.431 0 01-1.824-2.355V7.641A2.781 2.781 0 0044.1 4.863h-5.2a2.781 2.781 0 00-2.778 2.778v3.59a2.433 2.433 0 01-1.825 2.355 28.7 28.7 0 00-7.429 3.084 2.434 2.434 0 01-2.958-.373l-2.543-2.543a2.776 2.776 0 00-3.927 0l-3.684 3.685a2.777 2.777 0 000 3.927l2.544 2.541a2.434 2.434 0 01.373 2.958 28.685 28.685 0 00-3.084 7.429 2.432 2.432 0 01-2.355 1.824H7.641A2.782 2.782 0 004.863 38.9v5.2a2.78 2.78 0 002.778 2.777h3.59a2.433 2.433 0 012.355 1.825 28.685 28.685 0 003.084 7.429 2.434 2.434 0 01-.373 2.958l-2.544 2.543a2.777 2.777 0 000 3.927l3.684 3.684a2.777 2.777 0 003.928 0l2.542-2.543a2.443 2.443 0 012.958-.373"/><path id="Path_29" data-name="Path 29" d="M126.508 144.567a18.059 18.059 0 1118.059-18.059 18.08 18.08 0 01-18.059 18.059m0-31.255a13.2 13.2 0 1013.2 13.2 13.211 13.211 0 00-13.2-13.2" transform="translate(-85.008 -85.008)"/></g></svg>