<svg id="Group_59" data-name="Group 59" xmlns="http://www.w3.org/2000/svg" xmlns:xlink="http://www.w3.org/1999/xlink" width="88" height="106" viewBox="0 0 88 106">
  <defs>
    <clipPath id="clip-path">
      <rect id="Rectangle_112" data-name="Rectangle 112" width="88" height="106" transform="translate(0 0)" fill="#fff" stroke="#fff" stroke-width="1"/>
    </clipPath>
  </defs>
  <g id="Group_58" data-name="Group 58" transform="translate(0 0)" clip-path="url(#clip-path)">
    <path id="Path_30" data-name="Path 30" d="M87.53,41.295,67.953,26.869a2.061,2.061,0,0,0-3.283,1.649c-.013,2.6-.024,4.817-.032,6.708-3.821,0-8.648-.242-12.245,1.106v-12.6L59.1,23.7a2.072,2.072,0,0,0,1.649-3.283L46.324.838a2.061,2.061,0,0,0-3.318,0L28.58,20.41a2.072,2.072,0,0,0,1.657,3.283l6.7,0V60.4a22.321,22.321,0,0,0-6.955-1.1H24.692c-.009-1.891-.019-4.105-.032-6.707a2.073,2.073,0,0,0-3.283-1.65L1.8,65.367a2.062,2.062,0,0,0,0,3.319L21.371,83.11a2.072,2.072,0,0,0,3.283-1.657c0-2.824.005-5.04.012-6.7h5.315a6.963,6.963,0,0,1,6.955,6.955V103.45A2.061,2.061,0,0,0,39,105.511H50.331a2.061,2.061,0,0,0,2.061-2.061V57.637a6.963,6.963,0,0,1,6.955-6.955h5.316c.006,1.664.01,3.88.012,6.7a2.06,2.06,0,0,0,3.283,1.657L87.53,44.612a2.074,2.074,0,0,0,0-3.318M48.271,101.39H41.058V81.709A11.089,11.089,0,0,0,29.981,70.632H22.617a2.061,2.061,0,0,0-2.061,2.045c-.009,1.071-.015,2.623-.018,4.7L6.5,67.026,20.557,56.665c.01,1.793.017,3.35.023,4.7a2.06,2.06,0,0,0,2.061,2.051h7.34A18.31,18.31,0,0,1,48.271,81.709Zm0-32.619a22.573,22.573,0,0,0-7.213-6.539V21.638A2.061,2.061,0,0,0,39,19.577l-4.683,0L44.664,5.534,55.027,19.6l-4.705.023a2.062,2.062,0,0,0-2.051,2.061ZM68.791,53.3c0-2.066-.01-3.618-.018-4.7a2.06,2.06,0,0,0-2.061-2.045H59.347a11.029,11.029,0,0,0-6.955,2.461v-8.3a18.026,18.026,0,0,1,6.955-1.378h7.342A2.062,2.062,0,0,0,68.749,37.3c.005-1.354.013-2.911.021-4.7L82.833,42.954Z" transform="translate(-0.697 0)" fill="#fff" stroke="#fff" stroke-width="1"/>
  </g>
</svg>
