<svg id="Group_55" data-name="Group 55" xmlns="http://www.w3.org/2000/svg" xmlns:xlink="http://www.w3.org/1999/xlink" width="83" height="83" viewBox="0 0 83 83">
  <defs>
    <clipPath id="clip-path">
      <rect id="Rectangle_111" data-name="Rectangle 111" width="83" height="83" fill="#fff"/>
    </clipPath>
  </defs>
  <g id="Group_54" data-name="Group 54" clip-path="url(#clip-path)">
    <path id="Path_28" data-name="Path 28" d="M44.1,83H38.9a7.65,7.65,0,0,1-7.641-7.641V73.6a33.5,33.5,0,0,1-5.2-2.16L24.8,72.686a7.641,7.641,0,0,1-10.807,0L10.313,69a7.641,7.641,0,0,1,0-10.807l1.248-1.248a33.47,33.47,0,0,1-2.16-5.2H7.641A7.649,7.649,0,0,1,0,44.1V38.9a7.649,7.649,0,0,1,7.641-7.64H9.4a33.471,33.471,0,0,1,2.16-5.2L10.314,24.8a7.641,7.641,0,0,1,0-10.807L14,10.314a7.638,7.638,0,0,1,10.806,0l1.248,1.248a33.471,33.471,0,0,1,5.2-2.16V7.641A7.649,7.649,0,0,1,38.9,0H44.1a7.649,7.649,0,0,1,7.64,7.641V9.4a33.47,33.47,0,0,1,5.2,2.16L58.2,10.314a7.641,7.641,0,0,1,10.807,0L72.686,14a7.64,7.64,0,0,1,0,10.807l-1.248,1.248a33.471,33.471,0,0,1,2.16,5.2h1.762A7.649,7.649,0,0,1,83,38.9V44.1a7.649,7.649,0,0,1-7.641,7.64H73.6a33.47,33.47,0,0,1-2.16,5.2L72.686,58.2a7.641,7.641,0,0,1,0,10.807L69,72.687a7.639,7.639,0,0,1-10.806,0l-1.248-1.247a33.554,33.554,0,0,1-5.2,2.16V75.36A7.649,7.649,0,0,1,44.1,83M26.865,66.331a28.684,28.684,0,0,0,7.429,3.084,2.433,2.433,0,0,1,1.825,2.355v3.59A2.781,2.781,0,0,0,38.9,78.137H44.1a2.781,2.781,0,0,0,2.778-2.778v-3.59a2.432,2.432,0,0,1,1.824-2.355,28.7,28.7,0,0,0,7.43-3.084,2.43,2.43,0,0,1,2.957.373l2.543,2.543a2.776,2.776,0,0,0,3.927,0l3.685-3.685a2.776,2.776,0,0,0,0-3.927L66.7,59.093a2.433,2.433,0,0,1-.374-2.958,28.649,28.649,0,0,0,3.084-7.429,2.431,2.431,0,0,1,2.354-1.824h3.59A2.781,2.781,0,0,0,78.137,44.1V38.9a2.781,2.781,0,0,0-2.778-2.777h-3.59a2.432,2.432,0,0,1-2.354-1.824,28.655,28.655,0,0,0-3.084-7.43,2.431,2.431,0,0,1,.374-2.957l2.543-2.544a2.777,2.777,0,0,0,0-3.927l-3.684-3.684a2.776,2.776,0,0,0-3.927,0L59.093,16.3a2.431,2.431,0,0,1-2.957.374,28.675,28.675,0,0,0-7.43-3.084,2.431,2.431,0,0,1-1.824-2.355V7.641A2.781,2.781,0,0,0,44.1,4.863H38.9a2.781,2.781,0,0,0-2.778,2.778v3.59a2.433,2.433,0,0,1-1.825,2.355,28.7,28.7,0,0,0-7.429,3.084,2.434,2.434,0,0,1-2.958-.373l-2.543-2.543a2.776,2.776,0,0,0-3.927,0l-3.684,3.685a2.777,2.777,0,0,0,0,3.927L16.3,23.907a2.434,2.434,0,0,1,.373,2.958,28.685,28.685,0,0,0-3.084,7.429,2.432,2.432,0,0,1-2.355,1.824H7.641A2.782,2.782,0,0,0,4.863,38.9V44.1a2.78,2.78,0,0,0,2.778,2.777h3.59a2.433,2.433,0,0,1,2.355,1.825,28.685,28.685,0,0,0,3.084,7.429,2.434,2.434,0,0,1-.373,2.958l-2.544,2.543a2.777,2.777,0,0,0,0,3.927l3.684,3.684a2.777,2.777,0,0,0,3.928,0L23.907,66.7a2.443,2.443,0,0,1,2.958-.373" transform="translate(0 0)" fill="#fff"/>
    <path id="Path_29" data-name="Path 29" d="M126.508,144.567a18.059,18.059,0,1,1,18.059-18.059,18.08,18.08,0,0,1-18.059,18.059m0-31.255a13.2,13.2,0,1,0,13.2,13.2,13.211,13.211,0,0,0-13.2-13.2" transform="translate(-85.008 -85.008)" fill="#fff"/>
  </g>
</svg>
